# xmcd
# 
# Track frame offsets:
#     150
#     39551
#     66328
#     93442
#     125011
#     152971
#     182133
#     209022
# 
# Disc length: 3238
# 
# Revision: 1
# Processed by: cddbd v1.5.2PL0 Copyright (c) Steve Scherf et al.
# Submitted via: BonkEnc v1.0.8
# 
DISCID=780ca408
DTITLE=Mike Moreno - Third Wish
DYEAR=2007
DGENRE=Contemporary Jazz
TTITLE0=I Have A Dream
TTITLE1=Children Of The Night
TTITLE2=Isotope
TTITLE3=Lush Life
TTITLE4=Third Wish
TTITLE5=Another Way
TTITLE6=Street Lights
TTITLE7=A Flower Is A Lovesome Thing
EXTD=YEAR: 2008
EXTT0=
EXTT1=
EXTT2=
EXTT3=
EXTT4=
EXTT5=
EXTT6=
EXTT7=
PLAYORDER=
